<svg xmlns="http://www.w3.org/2000/svg" viewBox="0 0 120 120"><defs><style>.cls-1{fill:none;stroke:#002f5e;stroke-linecap:round;stroke-linejoin:round;stroke-width:2px;}.cls-2{fill:#87b926;}</style></defs><title>action-goto-press</title><g id="Layer_3" data-name="Layer 3"><ellipse class="cls-1" cx="60" cy="60" rx="58.5" ry="58.49"/><path class="cls-2" d="M81.33,53.11l-21.46-8.9-3.58-1.49-21.46-8.9c-1-.41-1.46.06-1,1l8.9,21.45,1.49,3.58,8.9,21.45a1.21,1.21,0,0,0,2.11.42l9.68-9.68L78.53,85.76a1.94,1.94,0,0,0,2.74,0l4.52-4.52a1.94,1.94,0,0,0,0-2.74L72.13,64.84l9.62-9.62A1.21,1.21,0,0,0,81.33,53.11Z"/></g></svg>