<svg id="Layer_1" data-name="Layer 1" xmlns="http://www.w3.org/2000/svg" viewBox="0 0 120 120"><defs><style>.cls-1{fill:none;stroke:#1a315c;}.cls-1,.cls-2{stroke-linecap:round;stroke-linejoin:round;stroke-width:2px;}.cls-2{fill:#86ba40;stroke:#86ba40;}</style></defs><title>speech bubble</title><path class="cls-1" d="M9,6.23a7,7,0,0,0-7,7v69.6a7,7,0,0,0,7,7H23l-7.39,24,32-24H111a7,7,0,0,0,7-7V13.19a7,7,0,0,0-7-7Z"/><path class="cls-2" d="M41.44,48a7,7,0,1,1-7-7,7,7,0,0,1,7,7Z"/><path class="cls-2" d="M67,48a7,7,0,1,1-7-7,7,7,0,0,1,7,7Z"/><path class="cls-2" d="M92.48,48a7,7,0,1,1-7-7,7,7,0,0,1,7,7Z"/></svg>