<svg xmlns="http://www.w3.org/2000/svg" viewBox="0 0 120 120"><defs><style>.cls-1,.cls-3{fill:none;stroke:#002f5e;stroke-width:2px;}.cls-1{stroke-miterlimit:10;}.cls-2{fill:#87b926;}.cls-3{stroke-linecap:round;stroke-linejoin:round;}</style></defs><title>team-of-experts-people</title><g id="Layer_3" data-name="Layer 3"><path class="cls-1" d="M22.8,58.87A11.19,11.19,0,1,0,11.57,47.68,11.22,11.22,0,0,0,22.8,58.87Z"/><path class="cls-2" d="M59.9,57.61A20.16,20.16,0,1,1,80.15,37.45,20.23,20.23,0,0,1,59.9,57.61Z"/><path class="cls-3" d="M38.48,71.65A21.27,21.27,0,0,0,1.5,86v15.7H20.92"/><path class="cls-2" d="M25.91,101.72a34,34,0,0,1,68,0Z"/><path class="cls-1" d="M97.2,58.87a11.19,11.19,0,1,1,11.23-11.19A11.22,11.22,0,0,1,97.2,58.87Z"/><path class="cls-3" d="M81.52,71.65A21.27,21.27,0,0,1,118.5,86v15.7H99.08"/></g></svg>